<?xml version="1.0" encoding="UTF-8"?>
<svg width="512px" height="168px" viewBox="0 0 512 168" version="1.1" xmlns="http://www.w3.org/2000/svg" xmlns:xlink="http://www.w3.org/1999/xlink">
    <!-- Generator: Sketch 62 (91390) - https://sketch.com -->
    <title>Android</title>
    <desc>Created with Sketch.</desc>
    <defs>
        <path d="M2.24770412,0.67028314 L57.498,55.456 L1.78166174,110.700961 C0.917790982,110.411299 0.365,109.558364 0.365,108.306 L0.365,108.306 L0.365,3.655" id="path-1"></path>
        <linearGradient x1="29.5954342%" y1="-1.59796556%" x2="29.5954342%" y2="101.176441%" id="linearGradient-3">
            <stop stop-color="#87C8B2" offset="0%"></stop>
            <stop stop-color="#2C729D" offset="100%"></stop>
        </linearGradient>
        <path d="M0.247704117,0.67028314 C1.12217376,0.425266902 2.20761785,0.609223906 3.295,1.237 L3.243,1.208 L22.2669445,12.1914022 C34.1635611,19.0607946 47.3067989,26.6501789 47.7684771,26.9167688 L47.781,26.924 L70.844,40.239 L55.498,55.456" id="path-4"></path>
        <linearGradient x1="-0.000310804585%" y1="23.9090051%" x2="75.0895589%" y2="23.9090051%" id="linearGradient-6">
            <stop stop-color="#53B8A0" offset="0%"></stop>
            <stop stop-color="#DBE596" offset="100%"></stop>
        </linearGradient>
        <path d="M56.498,0.456 L71.843,15.671 L48.781,28.985 C48.781,28.985 16.0515279,47.8825984 6.0536321,53.6569028 L3.24302052,55.2804599 C2.310476,55.8112265 1.45232325,55.925839 0.781661745,55.7009612" id="path-7"></path>
        <linearGradient x1="37.5441578%" y1="49.7896003%" x2="37.5441578%" y2="101.549612%" id="linearGradient-9">
            <stop stop-color="#7D4589" offset="0%"></stop>
            <stop stop-color="#DA3E3E" offset="100%"></stop>
        </linearGradient>
        <path d="M15.844,0.239 C16.289119,0.497834198 35.9983778,11.9581444 38.168,13.128 C40.363,14.31 40.613,16.37 38.012,17.873 L38.027,17.864 L35.2233895,19.4826503 C29.366478,22.8636402 17.0822378,29.9555638 15.9301316,30.6206972 L15.843,30.671 L0.498,15.456" id="path-10"></path>
        <linearGradient x1="80.7936518%" y1="35.986719%" x2="80.7936518%" y2="63.5904861%" id="linearGradient-12">
            <stop stop-color="#F7C374" offset="0%"></stop>
            <stop stop-color="#E88172" offset="100%"></stop>
        </linearGradient>
    </defs>
    <g id="Page-1" stroke="none" stroke-width="1" fill="none" fill-rule="evenodd">
        <g id="app-store-seeklogo.com" transform="translate(0.000000, -201.000000)">
            <g id="Android" transform="translate(0.000000, 201.593000)">
                <path d="M511.48,144.699 C511.48,157.185 501.359,167.311 488.875,167.311 L22.61,167.311 C10.124,167.311 0,157.185 0,144.699 L0,22.61 C0,10.125 10.124,0 22.61,0 L488.875,0 C501.359,0 511.48,10.125 511.48,22.61 L511.48,144.699" id="Fill-62" fill="#1A1919"></path>
                <g id="Group-101" transform="translate(38.000000, 33.407000)">
                    <mask id="mask-2" fill="white">
                        <use xlink:href="#path-1"></use>
                    </mask>
                    <g id="Clip-100"></g>
                    <path d="M72.844,40.239 L49.781,26.924 C49.781,26.924 7.766,2.663 5.295,1.237 C2.825,-0.189 0.365,0.675 0.365,3.655 C0.365,8.62 0.365,55.455 0.365,55.455 C0.365,55.455 0.365,106.07 0.365,108.306 C0.365,110.54 2.124,111.503 4.27,110.265 C6.415,109.024 49.781,83.985 49.781,83.985 L72.843,70.671 C72.843,70.671 92.411,59.374 95.012,57.873 C97.613,56.37 97.363,54.31 95.168,53.128 C92.974,51.945 72.844,40.239 72.844,40.239" id="Fill-99" fill="url(#linearGradient-3)" mask="url(#mask-2)"></path>
                </g>
                <g id="Group-104" transform="translate(40.000000, 33.407000)">
                    <mask id="mask-5" fill="white">
                        <use xlink:href="#path-4"></use>
                    </mask>
                    <g id="Clip-103"></g>
                    <path d="M70.844,40.239 L47.781,26.924 C47.781,26.924 5.766,2.663 3.295,1.237 C0.825,-0.189 -1.635,0.675 -1.635,3.655 C-1.635,8.62 -1.635,55.455 -1.635,55.455 C-1.635,55.455 -1.635,106.07 -1.635,108.306 C-1.635,110.54 0.124,111.503 2.27,110.265 C4.415,109.024 47.781,83.985 47.781,83.985 L70.843,70.671 C70.843,70.671 90.411,59.374 93.012,57.873 C95.613,56.37 95.363,54.31 93.168,53.128 C90.974,51.945 70.844,40.239 70.844,40.239" id="Fill-102" fill="url(#linearGradient-6)" mask="url(#mask-5)"></path>
                </g>
                <g id="Group-107" transform="translate(39.000000, 88.407000)">
                    <mask id="mask-8" fill="white">
                        <use xlink:href="#path-7"></use>
                    </mask>
                    <g id="Clip-106"></g>
                    <path d="M71.844,-14.761 L48.781,-28.076 C48.781,-28.076 6.766,-52.337 4.295,-53.763 C1.825,-55.189 -0.635,-54.325 -0.635,-51.345 C-0.635,-46.38 -0.635,0.455 -0.635,0.455 C-0.635,0.455 -0.635,51.07 -0.635,53.306 C-0.635,55.54 1.124,56.503 3.27,55.265 C5.415,54.024 48.781,28.985 48.781,28.985 L71.843,15.671 C71.843,15.671 91.411,4.374 94.012,2.873 C96.613,1.37 96.363,-0.69 94.168,-1.872 C91.974,-3.055 71.844,-14.761 71.844,-14.761" id="Fill-105" fill="url(#linearGradient-9)" mask="url(#mask-8)"></path>
                </g>
                <g id="Group-110" transform="translate(95.000000, 73.407000)">
                    <mask id="mask-11" fill="white">
                        <use xlink:href="#path-10"></use>
                    </mask>
                    <g id="Clip-109"></g>
                    <path d="M15.844,0.239 L-7.219,-13.076 C-7.219,-13.076 -49.234,-37.337 -51.705,-38.763 C-54.175,-40.189 -56.635,-39.325 -56.635,-36.345 C-56.635,-31.38 -56.635,15.455 -56.635,15.455 C-56.635,15.455 -56.635,66.07 -56.635,68.306 C-56.635,70.54 -54.876,71.503 -52.73,70.265 C-50.585,69.024 -7.219,43.985 -7.219,43.985 L15.843,30.671 C15.843,30.671 35.411,19.374 38.012,17.873 C40.613,16.37 40.363,14.31 38.168,13.128 C35.974,11.945 15.844,0.239 15.844,0.239" id="Fill-108" fill="url(#linearGradient-12)" mask="url(#mask-11)"></path>
                </g>
                <path d="M397.336,81.096 C393.969,81.096 391.535,82.029 390.032,83.892 C388.529,85.757 387.756,88.723 387.715,92.793 L387.715,93.904 C387.715,98.535 388.488,101.847 390.032,103.842 C391.576,105.836 394.051,106.832 397.457,106.832 C400.304,106.832 402.535,105.68 404.149,103.376 C405.761,101.072 406.568,97.894 406.568,93.843 C406.568,89.736 405.761,86.583 404.149,84.388 C402.535,82.193 400.263,81.096 397.336,81.096 Z M398.058,111.01 C395.913,111.01 393.954,110.615 392.181,109.824 C390.408,109.032 388.918,107.814 387.715,106.172 L387.355,106.172 C387.595,108.095 387.715,109.92 387.715,111.642 L387.715,125.201 L382.727,125.201 L382.727,77.459 L386.785,77.459 L387.475,81.968 L387.715,81.968 C389,80.164 390.494,78.862 392.197,78.06 C393.9,77.259 395.855,76.857 398.058,76.857 C402.428,76.857 405.801,78.351 408.175,81.338 C410.55,84.324 411.739,88.513 411.739,93.904 C411.739,99.316 410.531,103.519 408.118,106.518 C405.701,109.513 402.349,111.01 398.058,111.01 L398.058,111.01 Z" id="Fill-111" fill="#F9F8F7"></path>
                <polygon id="Fill-112" fill="#F9F8F7" points="418.303 110.409 423.293 110.409 423.293 63.629 418.303 63.629"></polygon>
                <path d="M440.712,106.892 C443.818,106.892 446.257,106.041 448.033,104.338 C449.805,102.635 450.694,100.249 450.694,97.18 L450.694,94.205 L445.701,94.414 C441.733,94.556 438.874,95.171 437.118,96.265 C435.365,97.357 434.488,99.056 434.488,101.361 C434.488,103.164 435.033,104.538 436.126,105.478 C437.219,106.422 438.746,106.892 440.712,106.892 Z M451.986,110.409 L450.993,105.718 L450.752,105.718 C449.109,107.785 447.47,109.183 445.836,109.913 C444.204,110.646 442.164,111.01 439.719,111.01 C436.453,111.01 433.892,110.169 432.038,108.485 C430.183,106.801 429.256,104.408 429.256,101.301 C429.256,94.647 434.579,91.16 445.22,90.838 L450.814,90.657 L450.814,88.613 C450.814,86.027 450.257,84.117 449.144,82.886 C448.033,81.652 446.251,81.037 443.808,81.037 C441.061,81.037 437.954,81.879 434.488,83.562 L432.954,79.744 C434.579,78.862 436.356,78.171 438.292,77.67 C440.225,77.169 442.164,76.918 444.109,76.918 C448.037,76.918 450.948,77.789 452.843,79.533 C454.736,81.277 455.683,84.073 455.683,87.922 L455.683,110.409 L451.986,110.409 L451.986,110.409 Z" id="Fill-113" fill="#F9F8F7"></path>
                <path d="M458.581,77.459 L463.93,77.459 L471.146,96.25 C472.729,100.54 473.712,103.635 474.094,105.541 L474.334,105.541 C474.595,104.516 475.142,102.769 475.972,100.292 C476.804,97.816 479.526,90.207 484.134,77.459 L489.488,77.459 L475.326,114.979 C473.923,118.687 472.285,121.318 470.409,122.874 C468.536,124.426 466.235,125.201 463.511,125.201 C461.987,125.201 460.484,125.031 459,124.691 L459,120.693 C460.101,120.933 461.335,121.054 462.699,121.054 C466.126,121.054 468.57,119.131 470.035,115.281 L471.868,110.592 L458.581,77.459" id="Fill-114" fill="#F9F8F7"></path>
                <path d="M302.714,98.026 C304.297,96.439 304.433,94.236 304.433,92.994 C304.433,88.033 301.471,80.314 295.752,80.314 C293.958,80.314 292.031,81.209 290.927,82.59 C289.757,84.037 289.41,85.895 289.41,87.689 C289.41,92.306 292.098,99.957 298.028,99.957 C299.75,99.957 301.607,99.13 302.714,98.026 Z M300.714,111.123 C300.164,111.051 299.817,111.051 299.131,111.051 C298.511,111.051 294.785,111.191 291.893,112.159 C290.377,112.706 285.965,114.36 285.965,119.256 C285.965,124.146 290.723,127.667 298.098,127.667 C304.71,127.667 308.229,124.49 308.229,120.22 C308.229,116.699 305.954,114.845 300.714,111.123 Z M305.609,80.52 C307.193,81.831 310.5,84.586 310.5,89.826 C310.5,94.923 307.606,97.34 304.71,99.611 C303.814,100.506 302.781,101.474 302.781,102.992 C302.781,104.505 303.814,105.333 304.575,105.954 L307.057,107.88 C310.089,110.43 312.843,112.775 312.843,117.533 C312.843,124.01 306.571,130.556 294.719,130.556 C284.724,130.556 279.902,125.802 279.902,120.699 C279.902,118.218 281.137,114.706 285.208,112.291 C289.478,109.672 295.272,109.331 298.372,109.119 C297.404,107.88 296.303,106.57 296.303,104.437 C296.303,103.267 296.649,102.577 296.993,101.746 C296.232,101.816 295.475,101.885 294.785,101.885 C287.482,101.885 283.346,96.439 283.346,91.066 C283.346,87.895 284.795,84.379 287.755,81.831 C291.685,78.592 296.372,78.039 300.096,78.039 L314.291,78.039 L309.879,80.52 L305.609,80.52 L305.609,80.52 Z" id="Fill-115" fill="#F9F8F7"></path>
                <path d="M270.82,104.447 C272.474,102.243 272.887,99.492 272.887,96.806 C272.887,90.75 269.998,79.191 261.464,79.191 C259.195,79.191 256.924,80.088 255.273,81.535 C252.589,83.94 252.105,86.968 252.105,89.931 C252.105,96.738 255.477,107.951 263.805,107.951 C266.488,107.951 269.241,106.646 270.82,104.447 Z M262.22,110.019 C251.281,110.019 245.432,101.486 245.432,93.778 C245.432,84.763 252.793,77.06 263.256,77.06 C273.367,77.06 279.698,84.97 279.698,93.299 C279.698,101.415 273.439,110.019 262.22,110.019 L262.22,110.019 Z" id="Fill-116" fill="#F9F8F7"></path>
                <path d="M233.527,104.447 C235.178,102.243 235.592,99.492 235.592,96.806 C235.592,90.75 232.701,79.191 224.167,79.191 C221.899,79.191 219.626,80.088 217.976,81.535 C215.292,83.94 214.811,86.968 214.811,89.931 C214.811,96.738 218.181,107.951 226.51,107.951 C229.194,107.951 231.945,106.646 233.527,104.447 Z M224.925,110.019 C213.984,110.019 208.135,101.486 208.135,93.778 C208.135,84.763 215.499,77.06 225.958,77.06 C236.072,77.06 242.402,84.97 242.402,93.299 C242.402,101.415 236.142,110.019 224.925,110.019 L224.925,110.019 Z" id="Fill-117" fill="#F9F8F7"></path>
                <path d="M202.878,108.941 L192.985,111.224 C188.971,111.848 185.375,112.397 181.572,112.397 C162.476,112.397 155.215,98.353 155.215,87.353 C155.215,73.934 165.521,61.485 183.164,61.485 C186.901,61.485 190.495,62.037 193.746,62.937 C198.935,64.39 201.355,66.187 202.878,67.226 L197.135,72.691 L194.715,73.242 L196.444,70.474 C194.093,68.193 189.801,63.974 181.641,63.974 C170.709,63.974 162.476,72.279 162.476,84.385 C162.476,97.386 171.886,109.632 186.964,109.632 C191.396,109.632 193.674,108.733 195.751,107.901 L195.751,96.765 L185.307,97.318 L190.838,94.341 L205.505,94.341 L203.708,96.069 C203.221,96.486 203.154,96.626 203.015,97.175 C202.943,97.799 202.878,99.806 202.878,100.498 L202.878,108.941" id="Fill-118" fill="#F9F8F7"></path>
                <path d="M327.474,106.949 C325.19,106.741 324.712,106.328 324.712,103.627 L324.712,64.472 C324.726,64.323 324.736,64.171 324.75,64.026 C325.029,61.606 325.719,61.191 327.867,59.944 L317.97,59.944 L312.78,62.435 L318.069,62.435 L318.069,62.467 L318.065,62.441 L318.065,105.15 C318.065,106.531 317.792,106.741 316.199,108.814 L328.445,108.814 L331.004,107.297 C329.83,107.154 328.652,107.087 327.474,106.949" id="Fill-119" fill="#F9F8F7"></path>
                <path d="M349.168,87.109 C350.471,86.63 351.159,86.217 351.159,85.256 C351.159,82.51 348.069,79.347 344.356,79.347 C341.605,79.347 336.456,81.478 336.456,88.896 C336.456,90.064 336.593,91.301 336.665,92.541 L349.168,87.109 Z M355.624,107.585 C354.871,107.998 354.115,108.481 353.362,108.822 C351.09,109.852 348.755,110.128 346.691,110.128 C344.498,110.128 341.06,109.986 337.553,107.447 C332.679,104.01 330.549,98.101 330.549,92.95 C330.549,82.302 339.206,77.082 346.282,77.082 C348.755,77.082 351.3,77.699 353.362,79.007 C356.793,81.269 357.687,84.223 358.165,85.804 L342.024,92.334 L336.733,92.746 C338.448,101.47 344.356,106.551 350.885,106.551 C354.388,106.551 356.931,105.316 359.266,104.15 L355.624,107.585 L355.624,107.585 Z" id="Fill-120" fill="#F9F8F7"></path>
                <polyline id="Fill-121" fill="#F9F8F7" points="362.255 77.551 362.255 82.085 361.705 82.085 361.705 77.551 360.205 77.551 360.205 77.082 363.754 77.082 363.754 77.551 362.255 77.551"></polyline>
                <polyline id="Fill-122" fill="#F9F8F7" points="368.435 82.085 368.435 77.51 368.41 77.51 367.013 82.085 366.583 82.085 365.174 77.51 365.157 77.51 365.157 82.085 364.657 82.085 364.657 77.082 365.514 77.082 366.789 81.126 366.806 81.126 368.061 77.082 368.93 77.082 368.93 82.085 368.435 82.085"></polyline>
                <path d="M163.991,41.945 C162.767,38.25 162.154,36.252 162.154,35.951 L161.982,35.951 C161.982,36.23 161.349,38.228 160.081,41.945 L163.991,41.945 Z M168.954,48.014 L165.517,48.014 C165.517,47.542 165.19,46.203 164.539,43.997 L159.576,43.997 C158.903,46.167 158.566,47.506 158.566,48.014 L155.333,48.014 C155.333,47.735 156.169,45.443 157.841,41.139 C159.513,36.836 160.35,34.465 160.35,34.028 L164.41,34.028 C164.41,34.436 165.167,36.772 166.682,41.037 C168.197,45.301 168.954,47.628 168.954,48.014 L168.954,48.014 Z" id="Fill-123" fill="#FCFBFA"></path>
                <path d="M182.806,48.014 L180.152,48.014 C180.152,47.72 179.167,46.171 177.198,43.363 C175.136,40.405 173.961,38.383 173.675,37.294 L173.503,37.294 C173.682,38.862 173.771,40.28 173.771,41.548 C173.771,43.316 173.821,45.472 173.922,48.014 L171.279,48.014 C171.387,45.795 171.44,43.356 171.44,40.699 C171.44,38.085 171.387,35.861 171.279,34.028 L174.47,34.028 C174.47,34.408 175.354,35.923 177.123,38.572 C179.006,41.386 180.088,43.295 180.367,44.298 L180.528,44.298 C180.356,42.701 180.271,41.268 180.271,40.001 C180.271,38.06 180.22,36.069 180.12,34.028 L182.806,34.028 C182.705,35.804 182.655,38.028 182.655,40.699 C182.655,43.391 182.705,45.83 182.806,48.014" id="Fill-124" fill="#FCFBFA"></path>
                <path d="M195.443,41 C195.443,39.625 195.042,38.467 194.24,37.524 C193.438,36.583 192.213,36.112 190.566,36.112 C190.258,36.112 189.835,36.144 189.298,36.209 C189.37,37.641 189.406,39.137 189.406,40.699 C189.406,42.411 189.441,44.108 189.513,45.791 C189.979,45.884 190.444,45.93 190.91,45.93 C192.449,45.93 193.59,45.452 194.331,44.496 C195.072,43.54 195.443,42.375 195.443,41 Z M198.375,40.538 C198.375,42.572 197.724,44.347 196.42,45.866 C195.117,47.385 193.291,48.143 190.942,48.143 C189.882,48.143 188.421,48.1 186.559,48.014 C186.652,45.851 186.699,43.413 186.699,40.699 C186.699,38.093 186.652,35.869 186.559,34.028 L188.439,34.028 C188.747,34.028 189.205,34.017 189.814,33.996 C190.422,33.974 190.82,33.964 191.006,33.964 C193.591,33.964 195.466,34.608 196.63,35.897 C197.793,37.186 198.375,38.733 198.375,40.538 L198.375,40.538 Z" id="Fill-125" fill="#FCFBFA"></path>
                <path d="M208.704,38.132 C208.704,36.707 207.787,35.994 205.954,35.994 C205.28,35.994 204.686,36.044 204.17,36.144 C204.249,37.255 204.289,38.701 204.289,40.484 C204.682,40.499 205.015,40.506 205.288,40.506 C207.565,40.506 208.704,39.715 208.704,38.132 Z M212.732,48.014 L209.552,48.014 C208.721,45.479 208.084,43.915 207.64,43.32 C207.196,42.725 206.48,42.428 205.492,42.428 C205.076,42.428 204.679,42.432 204.299,42.439 C204.299,44.28 204.332,46.138 204.396,48.014 L201.41,48.014 C201.502,45.851 201.549,43.413 201.549,40.699 C201.549,38.093 201.502,35.869 201.41,34.028 L203.268,34.028 C203.483,34.028 203.932,34.017 204.616,33.996 C205.3,33.974 205.932,33.964 206.512,33.964 C209.799,33.964 211.443,35.088 211.443,37.337 C211.443,39.12 210.504,40.362 208.628,41.064 L208.628,41.225 C209.352,41.426 209.985,41.99 210.53,42.917 C211.074,43.844 211.808,45.544 212.732,48.014 L212.732,48.014 Z" id="Fill-126" fill="#FCFBFA"></path>
                <path d="M225.166,41.075 C225.166,39.578 224.782,38.364 224.016,37.433 C223.25,36.503 222.304,36.037 221.18,36.037 C220.134,36.037 219.247,36.506 218.516,37.444 C217.786,38.383 217.42,39.567 217.42,41 C217.42,42.489 217.805,43.701 218.575,44.635 C219.345,45.57 220.289,46.038 221.406,46.038 C222.451,46.038 223.339,45.567 224.07,44.625 C224.8,43.683 225.166,42.5 225.166,41.075 Z M228.13,40.763 C228.13,42.962 227.457,44.785 226.111,46.231 C224.764,47.677 223.099,48.401 221.116,48.401 C219.225,48.401 217.642,47.737 216.368,46.408 C215.093,45.08 214.456,43.391 214.456,41.343 C214.456,39.145 215.128,37.322 216.475,35.876 C217.821,34.429 219.486,33.706 221.47,33.706 C223.361,33.706 224.943,34.368 226.218,35.693 C227.493,37.018 228.13,38.708 228.13,40.763 L228.13,40.763 Z" id="Fill-127" fill="#FCFBFA"></path>
                <path d="M234.204,48.014 L231.164,48.014 C231.257,45.795 231.304,43.356 231.304,40.699 C231.304,38.085 231.257,35.861 231.164,34.028 L234.204,34.028 C234.111,35.833 234.064,38.056 234.064,40.699 C234.064,43.399 234.111,45.838 234.204,48.014" id="Fill-128" fill="#FCFBFA"></path>
                <path d="M246.842,41 C246.842,39.625 246.44,38.467 245.639,37.524 C244.836,36.583 243.612,36.112 241.965,36.112 C241.657,36.112 241.234,36.144 240.697,36.209 C240.769,37.641 240.805,39.137 240.805,40.699 C240.805,42.411 240.84,44.108 240.912,45.791 C241.377,45.884 241.843,45.93 242.309,45.93 C243.848,45.93 244.989,45.452 245.73,44.496 C246.471,43.54 246.842,42.375 246.842,41 Z M249.774,40.538 C249.774,42.572 249.123,44.347 247.819,45.866 C246.516,47.385 244.689,48.143 242.341,48.143 C241.281,48.143 239.82,48.1 237.958,48.014 C238.051,45.851 238.098,43.413 238.098,40.699 C238.098,38.093 238.051,35.869 237.958,34.028 L239.838,34.028 C240.146,34.028 240.604,34.017 241.213,33.996 C241.821,33.974 242.219,33.964 242.405,33.964 C244.99,33.964 246.865,34.608 248.029,35.897 C249.192,37.186 249.774,38.733 249.774,40.538 L249.774,40.538 Z" id="Fill-129" fill="#FCFBFA"></path>
                <path d="M265.467,41.945 C264.243,38.25 263.629,36.252 263.629,35.951 L263.458,35.951 C263.458,36.23 262.825,38.228 261.557,41.945 L265.467,41.945 Z M270.43,48.014 L266.993,48.014 C266.993,47.542 266.667,46.203 266.014,43.997 L261.051,43.997 C260.378,46.167 260.042,47.506 260.042,48.014 L256.809,48.014 C256.809,47.735 257.645,45.443 259.317,41.139 C260.989,36.836 261.825,34.465 261.825,34.028 L265.885,34.028 C265.885,34.436 266.643,36.772 268.158,41.037 C269.672,45.301 270.43,47.628 270.43,48.014 L270.43,48.014 Z" id="Fill-130" fill="#FCFBFA"></path>
                <path d="M280.189,38.282 C280.189,36.75 279.172,35.983 277.138,35.983 C276.629,35.983 276.092,36.037 275.527,36.144 C275.606,37.498 275.645,39.03 275.645,40.742 C275.824,40.757 276.032,40.763 276.268,40.763 C278.882,40.763 280.189,39.936 280.189,38.282 Z M282.96,37.691 C282.96,39.403 282.325,40.667 281.053,41.483 C279.783,42.3 278.223,42.708 276.375,42.708 C276.039,42.708 275.799,42.701 275.656,42.686 C275.656,44.033 275.695,45.808 275.774,48.014 L272.755,48.014 C272.848,45.945 272.895,43.507 272.895,40.699 C272.895,38.121 272.848,35.897 272.755,34.028 L274.625,34.028 C274.889,34.028 275.398,34.017 276.15,33.996 C276.902,33.974 277.553,33.964 278.105,33.964 C279.465,33.964 280.615,34.271 281.553,34.887 C282.492,35.504 282.96,36.438 282.96,37.691 L282.96,37.691 Z" id="Fill-131" fill="#FCFBFA"></path>
                <path d="M293.073,38.282 C293.073,36.75 292.056,35.983 290.022,35.983 C289.513,35.983 288.976,36.037 288.411,36.144 C288.49,37.498 288.529,39.03 288.529,40.742 C288.708,40.757 288.916,40.763 289.152,40.763 C291.766,40.763 293.073,39.936 293.073,38.282 Z M295.844,37.691 C295.844,39.403 295.208,40.667 293.938,41.483 C292.667,42.3 291.107,42.708 289.259,42.708 C288.922,42.708 288.683,42.701 288.54,42.686 C288.54,44.033 288.579,45.808 288.658,48.014 L285.639,48.014 C285.732,45.945 285.779,43.507 285.779,40.699 C285.779,38.121 285.732,35.897 285.639,34.028 L287.508,34.028 C287.773,34.028 288.282,34.017 289.034,33.996 C289.786,33.974 290.437,33.964 290.989,33.964 C292.349,33.964 293.499,34.271 294.437,34.887 C295.375,35.504 295.844,36.438 295.844,37.691 L295.844,37.691 Z" id="Fill-132" fill="#FCFBFA"></path>
                <path d="M313.944,41.075 C313.944,39.578 313.561,38.364 312.794,37.433 C312.028,36.503 311.083,36.037 309.958,36.037 C308.913,36.037 308.025,36.506 307.294,37.444 C306.564,38.383 306.199,39.567 306.199,41 C306.199,42.489 306.583,43.701 307.354,44.635 C308.124,45.57 309.067,46.038 310.184,46.038 C311.23,46.038 312.118,45.567 312.848,44.625 C313.579,43.683 313.944,42.5 313.944,41.075 Z M316.909,40.763 C316.909,42.962 316.236,44.785 314.889,46.231 C313.542,47.677 311.877,48.401 309.894,48.401 C308.003,48.401 306.42,47.737 305.146,46.408 C303.872,45.08 303.234,43.391 303.234,41.343 C303.234,39.145 303.907,37.322 305.253,35.876 C306.6,34.429 308.265,33.706 310.249,33.706 C312.139,33.706 313.722,34.368 314.997,35.693 C316.271,37.018 316.909,38.708 316.909,40.763 L316.909,40.763 Z" id="Fill-133" fill="#FCFBFA"></path>
                <path d="M331.469,48.014 L328.816,48.014 C328.816,47.72 327.832,46.171 325.862,43.363 C323.799,40.405 322.625,38.383 322.338,37.294 L322.167,37.294 C322.345,38.862 322.435,40.28 322.435,41.548 C322.435,43.316 322.485,45.472 322.585,48.014 L319.943,48.014 C320.05,45.795 320.104,43.356 320.104,40.699 C320.104,38.085 320.05,35.861 319.943,34.028 L323.133,34.028 C323.133,34.408 324.018,35.923 325.787,38.572 C327.67,41.386 328.751,43.295 329.031,44.298 L329.192,44.298 C329.02,42.701 328.934,41.268 328.934,40.001 C328.934,38.06 328.884,36.069 328.784,34.028 L331.469,34.028 C331.369,35.804 331.319,38.028 331.319,40.699 C331.319,43.391 331.369,45.83 331.469,48.014" id="Fill-134" fill="#FCFBFA"></path>
            </g>
        </g>
    </g>
</svg>