<?xml version="1.0" encoding="UTF-8"?>
<svg width="522px" height="171px" viewBox="0 0 522 171" version="1.1" xmlns="http://www.w3.org/2000/svg" xmlns:xlink="http://www.w3.org/1999/xlink">
    <!-- Generator: Sketch 62 (91390) - https://sketch.com -->
    <title>Apple</title>
    <desc>Created with Sketch.</desc>
    <g id="Page-1" stroke="none" stroke-width="1" fill="none" fill-rule="evenodd">
        <g id="app-store-seeklogo.com" transform="translate(0.000000, -841.000000)">
            <g id="Apple" transform="translate(0.000000, 841.344000)">
                <path d="M521.708,147.592 C521.708,160.326 511.386,170.656 498.652,170.656 L23.062,170.656 C10.327,170.656 0,160.326 0,147.592 L0,23.061 C0,10.327 10.327,-2.84217094e-14 23.062,-2.84217094e-14 L498.652,-2.84217094e-14 C511.386,-2.84217094e-14 521.708,10.327 521.708,23.061 L521.708,147.592" id="Fill-135" fill="#1A1919"></path>
                <path d="M136.047,112.803 C133.285,118.925 131.963,121.657 128.408,127.067 C123.445,134.622 116.453,144.028 107.789,144.107 C100.088,144.178 98.111,139.095 87.662,139.153 C77.213,139.21 75.031,144.196 67.329,144.12673 C58.665,144.046 52.038,135.551 47.076,127.999 C33.201,106.878 31.751,82.091 40.308,68.914 C46.39,59.549 55.98,54.067 65.002,54.067 C74.186,54.067 79.959,59.104 87.553,59.104 C94.918,59.104 99.408,54.059 110.025,54.059 C118.051,54.059 126.555,58.428 132.615,65.987 C112.762,76.866 115.986,105.223 136.047,112.803" id="Fill-136" fill="#FFFFFE"></path>
                <path d="M101.971,45.622 C105.826,40.671 108.758,33.676 107.695,26.53 C101.395,26.964 94.021,30.973 89.717,36.2 C85.81,40.946 82.586,47.984 83.842,54.823 C90.721,55.036 97.838,50.927 101.971,45.622" id="Fill-137" fill="#FFFFFE"></path>
                <path d="M183.032,78.214 C183.703,80.825 184.427,83.537 185.358,86.467 L190.714,101.979 L175.47,101.979 L180.751,86.366 C181.556,83.835 182.32,81.1 183.032,78.214 Z M178.316,68.594 L158.441,127.098 L167.542,127.098 L173.476,109.134 L192.72,109.134 L198.822,127.098 L208.175,127.098 L188.214,68.594 L178.316,68.594 L178.316,68.594 Z" id="Fill-138" fill="#FFFFFE"></path>
                <path d="M231.689,91.089 C239.58,91.089 243.111,98.398 243.111,105.641 C243.111,114.983 238.605,120.787 231.353,120.787 C226.402,120.787 222.119,117.417 220.925,112.573 C220.72,111.823 220.611,110.829 220.611,109.708 L220.611,102.59 C220.611,101.945 220.755,101.163 220.892,100.405 C220.936,100.163 220.984,99.921 221.019,99.686 C222.339,94.622 226.721,91.089 231.689,91.089 Z M233.894,83.76 C227.865,83.76 223.037,86.088 219.822,90.511 L219.469,84.692 L211.373,84.692 L211.421,85.436 C211.66,89.061 211.759,93.051 211.759,98.78 L211.759,143.874 L220.611,143.874 L220.611,122.83 C223.357,126.116 227.742,128.029 232.71,128.029 C237.884,128.029 242.65,126.003 246.123,122.327 C250,118.229 252.045,112.339 252.045,105.301 C252.045,99.083 250.269,93.706 246.903,89.756 C243.606,85.889 238.988,83.76 233.894,83.76 L233.894,83.76 Z" id="Fill-139" fill="#FFFFFE"></path>
                <path d="M277.271,91.089 C285.158,91.089 288.69,98.398 288.69,105.641 C288.69,114.983 284.181,120.787 276.933,120.787 C271.984,120.787 267.697,117.417 266.505,112.573 C266.3,111.823 266.193,110.829 266.193,109.708 L266.193,102.59 C266.193,101.941 266.335,101.156 266.475,100.397 C266.519,100.159 266.563,99.921 266.603,99.686 C267.918,94.622 272.302,91.089 277.271,91.089 Z M279.474,83.76 C273.447,83.76 268.619,86.088 265.401,90.511 L265.048,84.692 L256.955,84.692 L257,85.436 C257.24,89.065 257.341,93.051 257.341,98.78 L257.341,143.874 L266.193,143.874 L266.193,122.83 C268.939,126.116 273.321,128.029 278.289,128.029 C283.462,128.029 288.229,126.003 291.708,122.327 C295.579,118.229 297.626,112.339 297.626,105.301 C297.626,99.083 295.847,93.706 292.481,89.756 C289.186,85.889 284.568,83.76 279.474,83.76 L279.474,83.76 Z" id="Fill-140" fill="#FFFFFE"></path>
                <path d="M336.577,93.384 C328.316,90.184 325.669,87.669 325.669,83.02 C325.669,79.106 328.779,75.159 335.73,75.159 C341.464,75.159 345.132,77.153 346.121,77.767 L346.871,78.23 L349.369,70.843 L348.875,70.554 C347.392,69.685 343.166,67.663 335.985,67.663 C324.697,67.663 316.813,74.327 316.813,83.865 C316.813,91.557 321.75,96.934 332.349,100.788 C339.861,103.595 342.657,106.471 342.657,111.402 C342.657,116.983 338.343,120.446 331.406,120.446 C326.887,120.446 322.237,119.129 318.648,116.829 L317.88,116.337 L315.504,123.894 L315.941,124.183 C319.283,126.415 325.572,128.029 330.9,128.029 C346.113,128.029 351.507,118.753 351.507,110.809 C351.507,102.62 347.183,97.569 336.577,93.384" id="Fill-141" fill="#FFFFFE"></path>
                <path d="M367.441,74.613 L358.759,77.339 L358.759,84.692 L352.404,84.692 L352.404,91.766 L358.759,91.766 L358.759,113.436 C358.759,118.675 359.761,122.346 361.824,124.667 C363.802,126.835 366.843,128.029 370.388,128.029 C373.734,128.029 376.111,127.368 377.23,126.972 L377.726,126.797 L377.302,119.71 L376.453,119.97 C375.333,120.314 374.185,120.446 372.335,120.446 C368.906,120.446 367.441,118.276 367.441,113.181 L367.441,91.766 L378.119,91.766 L378.119,84.692 L367.441,84.692 L367.441,74.613" id="Fill-142" fill="#FFFFFE"></path>
                <path d="M399.798,90.749 C407.761,90.749 411.386,98.511 411.386,105.727 C411.386,114.6 406.439,121.041 399.63,121.041 L399.544,121.041 C392.832,121.041 387.958,114.708 387.958,105.983 C387.958,98.401 391.621,90.749 399.798,90.749 Z M400.054,83.76 C387.669,83.76 379.021,93.005 379.021,106.233 C379.021,119.067 387.39,128.029 399.376,128.029 L399.458,128.029 C409.591,128.029 420.492,120.97 420.492,105.471 C420.492,99.17 418.542,93.757 414.851,89.815 C411.138,85.856 406.019,83.76 400.054,83.76 L400.054,83.76 Z" id="Fill-143" fill="#FFFFFE"></path>
                <path d="M447.603,84.172 L447.072,84.037 C446.292,83.842 445.656,83.76 444.871,83.76 C440.24,83.76 436.085,86.487 433.773,90.886 L433.513,84.692 L425.57,84.692 L425.621,85.436 C425.857,88.94 425.955,92.874 425.955,98.182 L425.873,127.098 L434.724,127.098 L434.724,104.54 C434.724,103.311 434.808,102.15 434.968,101.108 C435.966,95.69 439.623,92.188 444.281,92.188 C445.187,92.188 445.9,92.262 446.656,92.337 L447.603,92.434 L447.603,84.172" id="Fill-144" fill="#FFFFFE"></path>
                <path d="M466.914,90.411 C469.609,90.411 471.796,91.245 473.412,92.889 C475.958,95.481 476.404,99.298 476.46,101.13 L456.273,101.13 C457.095,96.018 460.292,90.411 466.914,90.411 Z M467.503,83.676 C455.72,83.676 447.49,93.092 447.49,106.573 C447.49,119.554 455.677,127.945 468.351,127.945 C475.015,127.945 479.652,126.482 482.365,125.257 L482.898,125.016 L481.197,118.421 L480.458,118.718 C478.046,119.7 474.839,120.702 469.369,120.702 C465.523,120.702 456.654,119.433 456.111,107.868 L484.681,107.954 L484.796,107.388 C484.976,106.489 485.062,105.277 485.062,103.694 C485.062,94.46 480.464,83.676 467.503,83.676 L467.503,83.676 Z" id="Fill-145" fill="#FFFFFE"></path>
                <path d="M162.458,53.156 C163.462,53.32 164.923,53.32 166.476,53.32 C174.966,53.36 179.576,49.048 179.576,41.571 C179.622,34.957 175.513,30.889 167.115,30.889 C165.062,30.889 163.508,31.055 162.458,31.259 L162.458,53.156 Z M158.441,28.63 C160.907,28.301 163.783,28.055 166.931,28.055 C172.638,28.055 176.701,29.206 179.394,31.466 C182.178,33.724 183.777,36.969 183.777,41.448 C183.777,45.967 182.178,49.663 179.349,52.211 C176.427,54.799 171.679,56.196 165.7,56.196 C162.824,56.196 160.496,56.114 158.441,55.867 L158.441,28.63 L158.441,28.63 Z" id="Fill-146" fill="#FFFFFE"></path>
                <path d="M198.15,53.689 C201.984,53.689 204.861,50.444 204.861,45.925 C204.861,42.556 202.989,38.325 198.242,38.325 C193.539,38.325 191.485,42.269 191.485,46.049 C191.485,50.403 194.224,53.689 198.104,53.689 L198.15,53.689 Z M198.013,56.401 C192.078,56.401 187.423,52.458 187.423,46.173 C187.423,39.517 192.307,35.614 198.377,35.614 C204.724,35.614 209.013,39.762 209.013,45.802 C209.013,53.197 203.308,56.401 198.06,56.401 L198.013,56.401 L198.013,56.401 Z" id="Fill-147" fill="#FFFFFE"></path>
                <path d="M215.369,36.065 L218.335,46.132 C218.928,48.349 219.523,50.444 219.933,52.499 L220.07,52.499 C220.572,50.485 221.302,48.349 222.033,46.173 L225.639,36.065 L229.018,36.065 L232.442,46.007 C233.262,48.349 233.902,50.485 234.404,52.499 L234.541,52.499 C234.906,50.485 235.5,48.39 236.23,46.049 L239.378,36.065 L243.351,36.065 L236.23,55.949 L232.578,55.949 L229.201,46.46 C228.425,44.2 227.785,42.228 227.236,39.886 L227.146,39.886 C226.598,42.269 225.914,44.364 225.136,46.501 L221.577,55.949 L217.925,55.949 L211.259,36.065 L215.369,36.065" id="Fill-148" fill="#FFFFFE"></path>
                <path d="M247.371,41.448 C247.371,39.352 247.325,37.71 247.187,36.065 L250.749,36.065 L250.976,39.312 L251.068,39.312 C252.164,37.463 254.719,35.614 258.371,35.614 C261.429,35.614 266.176,37.257 266.176,44.077 L266.176,55.949 L262.162,55.949 L262.162,44.487 C262.162,41.283 260.835,38.573 257.047,38.573 C254.446,38.573 252.39,40.257 251.662,42.269 C251.479,42.721 251.387,43.378 251.387,43.954 L251.387,55.949 L247.371,55.949 L247.371,41.448" id="Fill-149" fill="#FFFFFE"></path>
                <polygon id="Fill-150" fill="#FFFFFE" points="272.705 55.949 276.722 55.949 276.722 26.782 272.705 26.782"></polygon>
                <path d="M292.515,53.689 C296.35,53.689 299.227,50.444 299.227,45.925 C299.227,42.556 297.355,38.325 292.609,38.325 C287.906,38.325 285.851,42.269 285.851,46.049 C285.851,50.403 288.59,53.689 292.471,53.689 L292.515,53.689 Z M292.38,56.401 C286.447,56.401 281.791,52.458 281.791,46.173 C281.791,39.517 286.672,35.614 292.746,35.614 C299.089,35.614 303.38,39.762 303.38,45.802 C303.38,53.197 297.674,56.401 292.425,56.401 L292.38,56.401 L292.38,56.401 Z" id="Fill-151" fill="#FFFFFE"></path>
                <path d="M320.091,45.802 C315.708,45.72 310.733,46.419 310.733,50.28 C310.733,52.663 312.467,53.731 314.476,53.731 C317.397,53.731 319.269,52.088 319.907,50.403 C320.046,50.034 320.091,49.622 320.091,49.253 L320.091,45.802 Z M324.015,51.184 C324.015,52.909 324.107,54.592 324.335,55.949 L320.728,55.949 L320.363,53.444 L320.228,53.444 C319.041,55.005 316.62,56.401 313.472,56.401 C309,56.401 306.716,53.567 306.716,50.69 C306.716,45.884 311.462,43.255 319.998,43.296 L319.998,42.885 C319.998,41.243 319.498,38.244 314.978,38.285 C312.876,38.285 310.733,38.817 309.181,39.762 L308.267,37.34 C310.093,36.313 312.786,35.614 315.572,35.614 C322.373,35.614 324.015,39.762 324.015,43.749 L324.015,51.184 L324.015,51.184 Z" id="Fill-152" fill="#FFFFFE"></path>
                <path d="M345.517,44.159 C345.517,43.666 345.472,43.091 345.333,42.598 C344.742,40.339 342.55,38.449 339.538,38.449 C335.383,38.449 332.917,41.735 332.917,46.091 C332.917,50.157 335.156,53.483 339.446,53.483 C342.14,53.483 344.605,51.841 345.333,49.171 C345.472,48.678 345.517,48.184 345.517,47.61 L345.517,44.159 Z M349.533,26.782 L349.533,50.813 C349.533,52.58 349.582,54.592 349.716,55.949 L346.111,55.949 L345.929,52.499 L345.837,52.499 C344.605,54.717 341.957,56.401 338.351,56.401 C333.009,56.401 328.855,52.335 328.855,46.295 C328.809,39.639 333.421,35.614 338.76,35.614 C342.186,35.614 344.468,37.053 345.427,38.613 L345.517,38.613 L345.517,26.782 L349.533,26.782 L349.533,26.782 Z" id="Fill-153" fill="#FFFFFE"></path>
                <path d="M375.007,53.689 C378.841,53.689 381.716,50.444 381.716,45.925 C381.716,42.556 379.847,38.325 375.099,38.325 C370.396,38.325 368.343,42.269 368.343,46.049 C368.343,50.403 371.082,53.689 374.96,53.689 L375.007,53.689 Z M374.869,56.401 C368.935,56.401 364.279,52.458 364.279,46.173 C364.279,39.517 369.166,35.614 375.234,35.614 C381.582,35.614 385.871,39.762 385.871,45.802 C385.871,53.197 380.164,56.401 374.917,56.401 L374.869,56.401 L374.869,56.401 Z" id="Fill-154" fill="#FFFFFE"></path>
                <path d="M390.941,41.448 C390.941,39.352 390.894,37.71 390.757,36.065 L394.318,36.065 L394.548,39.312 L394.638,39.312 C395.734,37.463 398.289,35.614 401.941,35.614 C405,35.614 409.748,37.257 409.748,44.077 L409.748,55.949 L405.73,55.949 L405.73,44.487 C405.73,41.283 404.408,38.573 400.617,38.573 C398.017,38.573 395.96,40.257 395.23,42.269 C395.048,42.721 394.957,43.378 394.957,43.954 L394.957,55.949 L390.941,55.949 L390.941,41.448" id="Fill-155" fill="#FFFFFE"></path>
                <path d="M430.792,31.301 L430.792,36.065 L436.542,36.065 L436.542,38.817 L430.792,38.817 L430.792,49.541 C430.792,52.005 431.57,53.402 433.806,53.402 C434.9,53.402 435.541,53.32 436.134,53.156 L436.316,55.908 C435.541,56.154 434.308,56.401 432.755,56.401 C430.884,56.401 429.376,55.826 428.417,54.882 C427.322,53.772 426.867,52.005 426.867,49.663 L426.867,38.817 L423.443,38.817 L423.443,36.065 L426.867,36.065 L426.867,32.41 L430.792,31.301" id="Fill-156" fill="#FFFFFE"></path>
                <path d="M441.064,26.782 L445.08,26.782 L445.08,39.188 L445.173,39.188 C445.81,38.161 446.814,37.217 448.05,36.641 C449.236,35.985 450.648,35.614 452.158,35.614 C455.123,35.614 459.871,37.257 459.871,44.118 L459.871,55.949 L455.855,55.949 L455.855,44.529 C455.855,41.283 454.531,38.613 450.742,38.613 C448.14,38.613 446.132,40.257 445.355,42.228 C445.126,42.721 445.08,43.255 445.08,43.954 L445.08,55.949 L441.064,55.949 L441.064,26.782" id="Fill-157" fill="#FFFFFE"></path>
                <path d="M480.416,44.036 C480.458,41.776 479.365,38.161 474.89,38.161 C470.781,38.161 469.046,41.53 468.728,44.036 L480.416,44.036 Z M468.681,46.624 C468.775,51.512 472.199,53.526 476.214,53.526 C479.089,53.526 480.871,53.073 482.333,52.539 L483.064,55.086 C481.646,55.661 479.181,56.36 475.667,56.36 C468.91,56.36 464.802,52.292 464.802,46.337 C464.802,40.298 468.775,35.573 475.208,35.573 C482.423,35.573 484.292,41.283 484.292,44.94 C484.292,45.679 484.25,46.255 484.158,46.665 L468.681,46.624 L468.681,46.624 Z" id="Fill-158" fill="#FFFFFE"></path>
            </g>
        </g>
    </g>
</svg>