<?xml version="1.0" encoding="UTF-8"?>
<svg width="26px" height="30px" viewBox="0 0 26 30" version="1.1" xmlns="http://www.w3.org/2000/svg" xmlns:xlink="http://www.w3.org/1999/xlink">
    <!-- Generator: Sketch 61 (89581) - https://sketch.com -->
    <title>cal</title>
    <desc>Created with Sketch.</desc>
    <g id="Page-1" stroke="none" stroke-width="1" fill="none" fill-rule="evenodd">
        <g id="Main-Desktop" transform="translate(-1083.000000, -1383.000000)" fill="#FFFFFF" fill-rule="nonzero">
            <g id="Event-Section-Break" transform="translate(-158.000000, 1246.000000)">
                <g id="cal" transform="translate(1241.000000, 137.000000)">
                    <path d="M12.7208421,23.3781818 C14.7570526,23.3781818 16.5469474,22.0527273 16.5469474,19.7454545 C16.5469474,17.5363636 15.0197895,16.5218182 13.2298947,16.5218182 C12.8029474,16.5218182 12.4581053,16.5872727 12.064,16.7672727 L12.2446316,14.82 L16.0707368,14.82 L16.0707368,12.7909091 L10.1591579,12.7909091 L9.86357895,18.0436364 L10.9473684,18.7309091 C11.5713684,18.3381818 11.8833684,18.2072727 12.4909474,18.2072727 C13.4597895,18.2072727 14.1330526,18.7636364 14.1330526,19.8109091 C14.1330526,20.8745455 13.4433684,21.4309091 12.376,21.4309091 C11.4892632,21.4309091 10.7503158,20.9727273 10.1263158,20.4 L9.04252632,21.9218182 C9.86357895,22.74 11.0130526,23.3781818 12.7208421,23.3781818 Z" id="5"></path>
                    <path d="M26,0 L0,0 L0,30 L26,30 L26,0 Z M23.2631579,8.18181818 L23.2631579,27.2727273 L2.73684211,27.2727273 L2.73684211,8.18181818 L23.2631579,8.18181818 Z" id="Rectangle"></path>
                </g>
            </g>
        </g>
    </g>
</svg>