<?xml version="1.0" encoding="UTF-8"?>
<svg width="30px" height="30px" viewBox="0 0 30 30" version="1.1" xmlns="http://www.w3.org/2000/svg" xmlns:xlink="http://www.w3.org/1999/xlink">
    <!-- Generator: Sketch 61 (89581) - https://sketch.com -->
    <title>expand</title>
    <desc>Created with Sketch.</desc>
    <g id="Page-1" stroke="none" stroke-width="1" fill="none" fill-rule="evenodd">
        <g id="Main-Desktop" transform="translate(-784.000000, -1383.000000)" fill="#FFFFFF" fill-rule="nonzero">
            <g id="Event-Section-Break" transform="translate(-158.000000, 1246.000000)">
                <g id="expand" transform="translate(942.000000, 137.000000)">
                    <path d="M14.7460938,18.125 C14.7460938,18.2942709 14.6809896,18.4440098 14.5507813,18.5742188 L8.06640625,25.0585938 L10.8789063,27.8710938 C11.1263027,28.1184902 11.25,28.411459 11.25,28.75 C11.25,29.088541 11.1263021,29.3815098 10.8789063,29.6289063 C10.6315098,29.8763027 10.338541,30 10,30 L1.25,30 C0.911458984,30 0.618490234,29.8763021 0.37109375,29.6289063 C0.123697266,29.3815098 0,29.088541 0,28.75 L0,20 C0,19.661459 0.123697852,19.3684902 0.37109375,19.1210938 C0.618490234,18.8736973 0.911458984,18.75 1.25,18.75 C1.58854102,18.75 1.88150977,18.8736979 2.12890625,19.1210938 L4.94140625,21.9335938 L11.4257813,15.4492188 C11.5559896,15.3190104 11.7057285,15.2539063 11.875,15.2539063 C12.0442709,15.2539063 12.1940098,15.3190104 12.3242188,15.4492188 L14.5507813,17.6757813 C14.6809896,17.8059896 14.7460938,17.9557285 14.7460938,18.125 Z M30,1.25 L30,10 C30,10.338541 29.8763021,10.6315098 29.6289063,10.8789063 C29.3815098,11.1263027 29.088541,11.25 28.75,11.25 C28.411459,11.25 28.1184902,11.1263021 27.8710938,10.8789063 L25.0585938,8.06640625 L18.5742188,14.5507813 C18.4440104,14.6809896 18.2942715,14.7460938 18.125,14.7460938 C17.9557291,14.7460938 17.8059902,14.6809896 17.6757813,14.5507813 L15.4492188,12.3242188 C15.3190104,12.1940104 15.2539063,12.0442715 15.2539063,11.875 C15.2539063,11.7057291 15.3190104,11.5559902 15.4492188,11.4257813 L21.9335938,4.94140625 L19.1210938,2.12890625 C18.8736973,1.88150977 18.75,1.58854102 18.75,1.25 C18.75,0.911458984 18.8736979,0.618490234 19.1210938,0.37109375 C19.3684902,0.123697266 19.661459,0 20,0 L28.75,0 C29.088541,0 29.3815098,0.123697852 29.6289063,0.37109375 C29.8763027,0.618490234 30,0.911458984 30,1.25 Z" id="Shape"></path>
                </g>
            </g>
        </g>
    </g>
</svg>