<?xml version="1.0" encoding="UTF-8"?>
<svg width="20px" height="31px" viewBox="0 0 20 31" version="1.1" xmlns="http://www.w3.org/2000/svg" xmlns:xlink="http://www.w3.org/1999/xlink">
    <!-- Generator: Sketch 61 (89581) - https://sketch.com -->
    <title>map marker</title>
    <desc>Created with Sketch.</desc>
    <g id="Page-1" stroke="none" stroke-width="1" fill="none" fill-rule="evenodd">
        <g id="Main-Desktop" transform="translate(-843.000000, -3611.000000)" fill="#FFFFFF" fill-rule="nonzero">
            <g id="Location-Info-Section-Break" transform="translate(-154.000000, 3474.000000)">
                <g id="map-marker" transform="translate(997.000000, 137.000000)">
                    <path d="M15,10.0243309 C15,8.64076374 14.5117188,7.45951186 13.5351563,6.4805733 C12.5585938,5.50163473 11.3802148,5.01216545 10,5.01216545 C8.61979102,5.01216545 7.44140625,5.50163473 6.46484375,6.4805733 C5.48828125,7.45951186 5,8.64075787 5,10.0243309 C5,11.4078981 5.48828125,12.5891499 6.46484375,13.5680885 C7.44140625,14.5470271 8.61978516,15.0364964 10,15.0364964 C11.380209,15.0364964 12.5585938,14.5470271 13.5351563,13.5680885 C14.5117188,12.5891499 15,11.4079039 15,10.0243309 Z M20,10.0243309 C20,11.4470556 19.7851563,12.6152484 19.3554688,13.528931 L12.2460938,28.6828999 C12.0377598,29.1136329 11.7285156,29.4529976 11.3183594,29.700996 C10.9082031,29.9489945 10.46875,30.0729927 10,30.0729927 C9.53125,30.0729927 9.09179688,29.9489939 8.68164063,29.700996 C8.27148438,29.4529976 7.96875,29.1136329 7.7734375,28.6828999 L0.64453125,13.528931 C0.21484375,12.6152543 0,11.4470615 0,10.0243309 C0,7.25720442 0.9765625,4.89469282 2.9296875,2.93681569 C4.8828125,0.978938564 7.23958984,-1.47437618e-13 10,-1.47437618e-13 C12.7604102,-1.47437618e-13 15.1171875,0.978938564 17.0703125,2.93681569 C19.0234375,4.89469282 20,7.25720442 20,10.0243309 Z" id="Shape"></path>
                </g>
            </g>
        </g>
    </g>
</svg>