<?xml version="1.0" encoding="UTF-8"?>
<svg width="359px" height="78px" viewBox="0 0 359 78" version="1.1" xmlns="http://www.w3.org/2000/svg" xmlns:xlink="http://www.w3.org/1999/xlink">
    <!-- Generator: Sketch 61 (89581) - https://sketch.com -->
    <title>Logo</title>
    <desc>Created with Sketch.</desc>
    <g id="Page-1" stroke="none" stroke-width="1" fill="none" fill-rule="evenodd">
        <g id="Main-Desktop" transform="translate(-541.000000, -79.000000)">
            <g id="Hero-Header">
                <g id="Logo" transform="translate(541.000000, 79.000000)">
                    <path d="M92.127639,-2.13162821e-14 L92.127639,2.03641932 L83.2173444,2.03641932 L83.2173444,31.5183889 L64.5957186,31.5183889 L64.9897707,4.52033686 L39.6319835,78 L37.331571,78 L23.8607695,38.5128165 L1.5679167,38.5128165 L1.5679167,36.4763972 L42.6132389,36.4763972 L47.3973969,50.4002442 L64.5957186,0.565420063 L64.5957186,-2.13162821e-14 L92.127639,-2.13162821e-14 Z M86.6028456,36.476624 L86.6028456,75.6977274 L96,75.6977274 L96,77.7341467 L59.392709,77.7341467 L59.392709,75.6977274 L67.9926305,75.6977274 L68.4270007,36.476624 L86.6028456,36.476624 Z M10.816655,42.9269482 L10.816655,70.6075862 C11.3354649,75.3418454 17.9073112,76.5324023 19.1548894,76.7153324 L19.1548894,76.7153324 L19.5846953,76.7153324 L19.5846953,77.733542 L1.77635684e-15,77.733542 L1.77635684e-15,76.7153324 L0.440455956,76.7153324 C1.68879486,76.5324023 8.26748761,75.3403336 8.76804032,70.5962476 L8.76804032,70.5962476 L8.76804032,42.9269482 L10.816655,42.9269482 Z" id="Combined-Shape" fill="#FFFFFF"></path>
                    <path d="M126.671431,50.2695175 C129.054139,50.2695175 130.48422,51.1416663 131.85652,52.3935366 L131.150983,53.1136456 C129.988519,51.9949048 128.654233,51.1605768 126.652424,51.1605768 C123.450137,51.1605768 121.029415,53.7588694 121.029415,57.0961815 L121.029415,57.1347587 C121.029415,60.4917377 123.488911,63.1089407 126.671431,63.1089407 C128.597213,63.1089407 129.912492,62.3691648 131.265785,61.0416529 L131.932548,61.6861202 C130.522234,63.0703634 128.997118,64 126.634177,64 C122.821388,64 120,60.9849216 120,57.1725796 L120,57.1347587 C120,53.379148 122.821388,50.2695175 126.671431,50.2695175 Z M151.850969,50.2695175 C155.891842,50.2695175 158.541407,53.4744566 158.541407,57.0961815 L158.541407,57.1347587 C158.541407,60.75724 155.853068,64 151.812956,64 C147.771323,64 145.121758,60.7950609 145.121758,57.1725796 L145.121758,57.1347587 C145.121758,53.5122774 147.809337,50.2695175 151.850969,50.2695175 Z M329.989121,50.2695175 C332.37259,50.2695175 333.801911,51.1416663 335.174211,52.3935366 L334.468674,53.1136456 C333.30697,51.9949048 331.971924,51.1605768 329.970114,51.1605768 C326.767828,51.1605768 324.347106,53.7588694 324.347106,57.0961815 L324.347106,57.1347587 C324.347106,60.4917377 326.806602,63.1089407 329.989121,63.1089407 C331.914903,63.1089407 333.230182,62.3691648 334.583475,61.0416529 L335.250238,61.6861202 C333.839924,63.0703634 332.314809,64 329.951868,64 C326.139079,64 323.317691,60.9849216 323.317691,57.1725796 L323.317691,57.1347587 C323.317691,53.379148 326.139079,50.2695175 329.989121,50.2695175 Z M253.595422,50.4963669 C255.235339,50.4963669 256.549858,51.0092177 257.35043,51.8049684 C257.979179,52.4312818 258.360838,53.3223411 258.360838,54.2708881 L258.360838,54.3087089 C258.360838,56.5280366 256.701914,57.7980608 254.453014,58.1021405 L258.856539,63.7722428 L257.59828,63.7722428 L253.347572,58.2723343 L248.982061,58.2723343 L248.982061,63.7722428 L247.99066,63.7722428 L247.99066,50.4963669 L253.595422,50.4963669 Z M358.904205,50.4967451 L358.904205,51.4074713 L350.403548,51.4074713 L350.403548,56.6229669 L358.046613,56.6229669 L358.046613,57.5329367 L350.403548,57.5329367 L350.403548,62.8618949 L359,62.8618949 L359,63.772621 L349.412146,63.772621 L349.412146,50.4967451 L358.904205,50.4967451 Z M298.349205,50.4967451 L307.55616,62.0464773 L307.55616,50.4967451 L308.508787,50.4967451 L308.508787,63.772621 L307.765236,63.772621 L298.368212,51.9762969 L298.368212,63.772621 L297.414824,63.772621 L297.414824,50.4967451 L298.349205,50.4967451 Z M282.700499,50.4967451 L282.700499,51.4074713 L274.199081,51.4074713 L274.199081,56.6229669 L281.842906,56.6229669 L281.842906,57.5329367 L274.199081,57.5329367 L274.199081,62.8618949 L282.795534,62.8618949 L282.795534,63.772621 L273.20768,63.772621 L273.20768,50.4967451 L282.700499,50.4967451 Z M233.276562,50.4967451 L233.276562,51.4074713 L224.775905,51.4074713 L224.775905,56.6229669 L232.41897,56.6229669 L232.41897,57.5329367 L224.775905,57.5329367 L224.775905,62.8618949 L233.372357,62.8618949 L233.372357,63.772621 L223.784504,63.772621 L223.784504,50.4967451 L233.276562,50.4967451 Z M209.241697,50.4967451 L209.241697,51.4074713 L200.836074,51.4074713 L200.836074,56.8498921 L208.384104,56.8498921 L208.384104,57.7606182 L200.836074,57.7606182 L200.836074,63.772621 L199.844673,63.772621 L199.844673,50.4967451 L209.241697,50.4967451 Z M174.284464,50.4967451 L183.491418,62.0464773 L183.491418,50.4967451 L184.444806,50.4967451 L184.444806,63.772621 L183.700494,63.772621 L174.30347,51.9762969 L174.30347,63.772621 L173.350083,63.772621 L173.350083,50.4967451 L174.284464,50.4967451 Z M151.812956,51.1605768 C148.514874,51.1605768 146.151933,53.8156006 146.151933,57.0961815 L146.151933,57.1347587 C146.151933,60.4153395 148.553648,63.1089407 151.850969,63.1089407 C155.148291,63.1089407 157.511992,60.4531604 157.511992,57.1725796 L157.511992,57.1347587 C157.511992,53.8534215 155.110277,51.1605768 151.812956,51.1605768 Z M253.537641,51.4070931 L248.982061,51.4070931 L248.982061,57.381275 L253.48062,57.381275 C255.711273,57.381275 257.369437,56.2625342 257.369437,54.3465298 L257.369437,54.3087089 C257.369437,52.5265903 255.959123,51.4070931 253.537641,51.4070931 Z M303.39197,14 C311.48664,14 317.481424,20.0029258 317.481424,27.4967497 L317.481424,27.571635 C317.481424,35.0662152 311.410612,41.1425135 303.316703,41.1425135 C295.222033,41.1425135 289.225728,35.1403441 289.225728,27.6457638 L289.225728,27.571635 C289.225728,20.0778111 295.29578,14 303.39197,14 Z M344.198927,14.5217765 C353.5663,14.5217765 359,19.8915812 359,27.4224695 L359,27.4965984 C359,35.0282431 353.492553,40.6211909 344.048392,40.6211909 L334.08116,40.6211909 L334.08116,14.5217765 L344.198927,14.5217765 Z M256.063205,14.5218521 L256.063205,24.2909785 L265.394085,24.2909785 L265.394085,14.5218521 L272.664614,14.5218521 L272.664614,40.6205101 L265.394085,40.6205101 L265.394085,30.703126 L256.063205,30.703126 L256.063205,40.6205101 L248.794197,40.6205101 L248.794197,14.5218521 L256.063205,14.5218521 Z M230.281679,14.5221547 L230.281679,20.8601733 L222.413572,20.8601733 L222.413572,40.6208127 L215.143043,40.6208127 L215.143043,20.8601733 L207.273416,20.8601733 L207.273416,14.5221547 L230.281679,14.5221547 Z M189.10059,14.5218521 L189.10059,20.6737921 L175.198925,20.6737921 L175.198925,24.6260713 L187.789112,24.6260713 L187.789112,30.3302124 L175.198925,30.3302124 L175.198925,34.4693265 L189.286858,34.4693265 L189.286858,40.6205101 L168.003663,40.6205101 L168.003663,14.5218521 L189.10059,14.5218521 Z M127.682599,14.5218521 L133.939679,24.6260713 L140.19828,14.5218521 L147.880879,14.5218521 L147.880879,40.6205101 L140.647603,40.6205101 L140.647603,25.632106 L133.939679,35.8482748 L133.789905,35.8482748 L127.119234,25.7077477 L127.119234,40.6205101 L120,40.6205101 L120,14.5218521 L127.682599,14.5218521 Z M303.316703,20.5248536 C299.344255,20.5248536 296.682525,23.7313055 296.682525,27.4967497 L296.682525,27.571635 C296.682525,31.3370791 299.418762,34.6176599 303.39197,34.6176599 C307.400151,34.6176599 310.06112,31.411208 310.06112,27.6457638 L310.06112,27.571635 C310.06112,23.8054344 307.326404,20.5248536 303.316703,20.5248536 Z M344.311448,20.9354368 L341.350169,20.9354368 L341.350169,34.208287 L344.311448,34.208287 C348.658712,34.208287 351.543203,31.8217912 351.543203,27.6093045 L351.543203,27.5344192 C351.543203,23.3582406 348.658712,20.9354368 344.311448,20.9354368 Z" id="Combined-Shape" fill="#FFFFFF"></path>
                    <polygon id="Fill-5" fill="#D72F32" fill-rule="nonzero" points="48 32 37.3292647 0 36.4766688 0 19.7960054 0 18.8879869 0 17.9807277 0 9 0 9 2.06753645 17.9807277 2.06753645 17.9807277 24.1765157 17.9807277 32 19.7960054 32 19.7960054 6.36070606 28.7934357 32"></polygon>
                </g>
            </g>
        </g>
    </g>
</svg>