<?xml version="1.0" encoding="UTF-8"?>
<svg width="2400px" height="1400px" viewBox="0 0 2400 1400" version="1.1" xmlns="http://www.w3.org/2000/svg" xmlns:xlink="http://www.w3.org/1999/xlink">
    <!-- Generator: Sketch 61 (89581) - https://sketch.com -->
    <title>Design_Materials</title>
    <desc>Created with Sketch.</desc>
    <g id="Design_Materials" stroke="none" stroke-width="1" fill="none" fill-rule="evenodd">
        <polygon id="Fill-1" fill="#569AC5" points="0 1400 2400 1400 2400 0 0 0"></polygon>
        <polygon id="Fill-2" fill="#FFFFFE" points="0 1018.074 2400 1018.074 2400 700 0 700"></polygon>
        <g id="Group-13" transform="translate(801.000000, 112.000000)">
            <path d="M398.7196,558.7228 C359.8106,558.7228 323.2036,548.8578 291.2596,531.4908 L235.5376,424.5048 L342.6376,480.2868 L399.5726,299.5868 L456.3396,479.7678 L562.4626,424.5058 L506.9696,531.0488 C474.8386,548.6858 437.9516,558.7228 398.7196,558.7228 L398.7196,558.7228 Z M797.5676,587.9998 L546.9596,509.0228 L623.6746,361.7318 L477.2996,437.9558 L398.9986,189.4298 L320.4696,438.6718 L172.7446,361.7308 L249.6876,509.4628 L0.4316,587.9998 L248.9786,666.2888 L172.7466,812.6598 L320.0366,735.9318 L398.9826,986.5388 L477.7336,736.6468 L623.6486,812.6528 L547.6616,666.7368 L797.5676,587.9998 Z" id="Fill-3" fill="#192D41"></path>
            <polygon id="Fill-5" fill="#FFFFFE" points="81.1752 290.8746 123.2492 312.7876 101.3382 270.7106 123.2512 228.6406 81.1772 250.5536 39.1032 228.6426 61.0182 270.7126 39.1032 312.7846"></polygon>
            <polygon id="Fill-7" fill="#FFFFFE" points="398.9974 119.9655 413.2544 74.7235 458.4994 60.4675 413.2534 46.2085 398.9994 0.9655 384.7444 46.2115 339.4994 60.4675 384.7444 74.7195"></polygon>
            <polygon id="Fill-9" fill="#FFFFFE" points="673.1718 312.7872 715.2428 290.8722 757.3148 312.7872 735.4048 270.7152 757.3178 228.6412 715.2408 250.5532 673.1708 228.6402 695.0838 270.7142"></polygon>
            <path d="M456.3397,479.7682 L399.5717,299.5862 L342.6377,480.2872 L235.5377,424.5042 L291.2587,531.4912 C323.2037,548.8582 359.8107,558.7232 398.7197,558.7232 C437.9517,558.7232 474.8387,548.6852 506.9697,531.0492 L562.4627,424.5052 L456.3397,479.7682 Z" id="Fill-11" fill="#FFFFFE"></path>
        </g>
    </g>
</svg>