<?xml version="1.0" encoding="UTF-8"?>
<svg width="1377px" height="217px" viewBox="0 0 1377 217" version="1.1" xmlns="http://www.w3.org/2000/svg" xmlns:xlink="http://www.w3.org/1999/xlink">
    <!-- Generator: Sketch 61 (89581) - https://sketch.com -->
    <title>sky</title>
    <desc>Created with Sketch.</desc>
    <defs>
        <polygon id="path-1" points="0.000333091807 0.0005 143.863387 0.0005 143.863387 32.5832 0.000333091807 32.5832"></polygon>
    </defs>
    <g id="Page-1" stroke="none" stroke-width="1" fill="none" fill-rule="evenodd">
        <g id="Main-Desktop" transform="translate(-35.000000, -360.000000)">
            <g id="Hero-Header">
                <g id="Group" transform="translate(11.000000, 360.000000)">
                    <g id="sky" transform="translate(23.999800, 0.000000)">
                        <g id="Airplane" transform="translate(936.000200, 0.000000)">
                            <mask id="mask-2" fill="white">
                                <use xlink:href="#path-1"></use>
                            </mask>
                            <g id="Clip-2"></g>
                            <path d="M102.1133,29.5832 L83.1293,29.5832 L94.3193,22.0832 L128.6043,22.0832 C118.4883,25.5292 106.1193,29.5832 102.1133,29.5832 L102.1133,29.5832 Z M3.4093,26.2552 C3.5523,26.3012 3.7043,26.3332 3.8633,26.3332 L14.8633,26.3332 C15.6913,26.3332 16.3633,25.6622 16.3633,24.8332 C16.3633,24.0042 15.6913,23.3332 14.8633,23.3332 L12.1263,23.3332 C15.1053,22.7712 18.3013,22.3332 20.9333,22.0832 L73.7703,22.0832 L47.8183,29.5832 L20.3633,29.5832 C15.4003,29.5832 5.7663,27.7682 3.4093,26.2552 L3.4093,26.2552 Z M94.7423,13.8332 L95.8373,13.8332 L92.7223,19.5422 L77.7403,29.5832 L58.6233,29.5832 L84.7793,22.0242 C84.8033,22.0172 84.8263,22.0032 84.8493,21.9952 C84.9063,21.9762 84.9613,21.9552 85.0133,21.9292 C85.0513,21.9102 85.0893,21.8902 85.1253,21.8692 C85.1763,21.8382 85.2233,21.8062 85.2703,21.7702 C85.2893,21.7562 85.3093,21.7472 85.3273,21.7312 L94.7423,13.8332 Z M124.8713,15.7652 C128.1093,11.6842 133.3653,4.9892 134.9263,3.0002 L140.0523,3.0002 L132.8893,19.0832 L121.5263,19.0832 C122.6273,18.2292 123.7743,17.1472 124.8713,15.7652 L124.8713,15.7652 Z M138.0973,22.0032 C138.7923,21.7662 139.2133,21.0622 139.0923,20.3382 C138.9723,19.6142 138.3463,19.0832 137.6133,19.0832 L136.1743,19.0832 L143.7333,2.1102 C143.9403,1.6462 143.8983,1.1092 143.6213,0.6832 C143.3443,0.2572 142.8713,0.0002 142.3633,0.0002 L134.1963,0.0002 C133.7353,0.0002 133.3003,0.2122 133.0153,0.5742 C133.0153,0.5752 126.3533,9.0702 122.5213,13.9012 C119.4303,17.7952 115.8593,18.9012 115.1793,19.0832 L96.3893,19.0832 L99.6793,13.0512 C99.9333,12.5862 99.9243,12.0222 99.6533,11.5672 C99.3833,11.1122 98.8923,10.8332 98.3633,10.8332 L94.1963,10.8332 C93.8433,10.8332 93.5023,10.9572 93.2323,11.1842 L83.8173,19.0832 L20.8633,19.0832 C20.8163,19.0832 20.7693,19.0852 20.7233,19.0892 C17.9563,19.3492 3.9873,20.8202 0.7603,24.3152 C-0.0017,25.1422 -0.2017,26.1562 0.2103,27.0972 C2.0563,31.3162 18.6343,32.5832 20.3633,32.5832 L48.0263,32.5832 C48.0273,32.5832 48.0283,32.5832 48.0293,32.5832 C48.0293,32.5832 48.0313,32.5832 48.0333,32.5832 L102.1133,32.5832 C107.2753,32.5832 122.9103,27.2142 134.3253,23.2952 L138.0973,22.0032 Z" id="Fill-1" fill="#FFFFFF" mask="url(#mask-2)"></path>
                        </g>
                        <g id="Cloud" transform="translate(79.000200, 124.000000)" fill="#FFFFFF">
                            <path d="M35.251,-0.0001 C40.127,-0.0001 44.204,3.4619 45.114,8.0379 C46.098,7.7249 47.127,7.5639 48.164,7.5639 C53.708,7.5639 58.218,12.0379 58.218,17.5379 C58.218,23.0369 53.708,27.5119 48.164,27.5119 L48.164,27.5119 L27.018,27.5119 C23.743,27.5119 20.801,26.0959 18.759,23.8589 C18.489,24.2649 18.03,24.5329 17.507,24.5329 L17.507,24.5329 L11.876,24.5329 C11.047,24.5329 10.376,23.8629 10.376,23.0329 C10.376,22.2049 11.047,21.5329 11.876,21.5329 L11.876,21.5329 L17.121,21.5329 C16.32,20.0089 15.86,18.2799 15.86,16.4449 C15.86,13.6669 16.906,11.1319 18.617,9.1869 L18.617,9.1869 L11.876,9.1869 C11.047,9.1869 10.376,8.5149 10.376,7.6869 C10.376,6.8579 11.047,6.1869 11.876,6.1869 L11.876,6.1869 L22.86,6.1869 C23.942,5.7539 25.104,5.4739 26.322,5.3989 C28.036,2.0879 31.438,-0.0001 35.251,-0.0001 Z M6.1592,21.5334 C6.9882,21.5334 7.6592,22.2054 7.6592,23.0334 C7.6592,23.8624 6.9882,24.5334 6.1592,24.5334 L6.1592,24.5334 L4.9762,24.5334 C4.1472,24.5334 3.4762,23.8624 3.4762,23.0334 C3.4762,22.2054 4.1472,21.5334 4.9762,21.5334 L4.9762,21.5334 Z M35.251,2.9999 C32.328,2.9999 29.751,4.7439 28.685,7.4429 C28.452,8.0289 27.839,8.3959 27.249,8.3909 L27.249,8.3909 L27.065,8.3809 C22.517,8.3809 18.86,11.9979 18.86,16.4449 C18.86,20.8929 22.52,24.5119 27.018,24.5119 L27.018,24.5119 L48.164,24.5119 C52.054,24.5119 55.218,21.3839 55.218,17.5379 C55.218,13.6919 52.054,10.5639 48.164,10.5639 C46.899,10.5639 45.651,10.9069 44.555,11.5559 C44.082,11.8369 43.493,11.8349 43.021,11.5539 C42.55,11.2719 42.269,10.7549 42.291,10.2059 L42.291,10.2059 L42.301,10.0499 C42.305,6.1289 39.141,2.9999 35.251,2.9999 Z M12.764,12.256 C13.593,12.256 14.264,12.927 14.264,13.756 C14.264,14.585 13.593,15.256 12.764,15.256 L12.764,15.256 L1.5,15.256 C0.672,15.256 0,14.585 0,13.756 C0,12.927 0.672,12.256 1.5,12.256 L1.5,12.256 Z M23.7309,0.0002 C24.5599,0.0002 25.2309,0.6712 25.2309,1.5002 C25.2309,2.3292 24.5599,3.0002 23.7309,3.0002 L23.7309,3.0002 L22.5469,3.0002 C21.7179,3.0002 21.0469,2.3292 21.0469,1.5002 C21.0469,0.6712 21.7179,0.0002 22.5469,0.0002 L22.5469,0.0002 Z" id="Combined-Shape"></path>
                        </g>
                        <g id="Cloud" transform="translate(205.000200, 71.000000)" fill="#FFFFFF">
                            <path d="M35.251,-0.0001 C40.127,-0.0001 44.204,3.4619 45.114,8.0379 C46.098,7.7249 47.127,7.5639 48.164,7.5639 C53.708,7.5639 58.218,12.0379 58.218,17.5379 C58.218,23.0369 53.708,27.5119 48.164,27.5119 L48.164,27.5119 L27.018,27.5119 C23.743,27.5119 20.801,26.0959 18.759,23.8589 C18.489,24.2649 18.03,24.5329 17.507,24.5329 L17.507,24.5329 L11.876,24.5329 C11.047,24.5329 10.376,23.8629 10.376,23.0329 C10.376,22.2049 11.047,21.5329 11.876,21.5329 L11.876,21.5329 L17.121,21.5329 C16.32,20.0089 15.86,18.2799 15.86,16.4449 C15.86,13.6669 16.906,11.1319 18.617,9.1869 L18.617,9.1869 L11.876,9.1869 C11.047,9.1869 10.376,8.5149 10.376,7.6869 C10.376,6.8579 11.047,6.1869 11.876,6.1869 L11.876,6.1869 L22.86,6.1869 C23.942,5.7539 25.104,5.4739 26.322,5.3989 C28.036,2.0879 31.438,-0.0001 35.251,-0.0001 Z M6.1592,21.5334 C6.9882,21.5334 7.6592,22.2054 7.6592,23.0334 C7.6592,23.8624 6.9882,24.5334 6.1592,24.5334 L6.1592,24.5334 L4.9762,24.5334 C4.1472,24.5334 3.4762,23.8624 3.4762,23.0334 C3.4762,22.2054 4.1472,21.5334 4.9762,21.5334 L4.9762,21.5334 Z M35.251,2.9999 C32.328,2.9999 29.751,4.7439 28.685,7.4429 C28.452,8.0289 27.839,8.3959 27.249,8.3909 L27.249,8.3909 L27.065,8.3809 C22.517,8.3809 18.86,11.9979 18.86,16.4449 C18.86,20.8929 22.52,24.5119 27.018,24.5119 L27.018,24.5119 L48.164,24.5119 C52.054,24.5119 55.218,21.3839 55.218,17.5379 C55.218,13.6919 52.054,10.5639 48.164,10.5639 C46.899,10.5639 45.651,10.9069 44.555,11.5559 C44.082,11.8369 43.493,11.8349 43.021,11.5539 C42.55,11.2719 42.269,10.7549 42.291,10.2059 L42.291,10.2059 L42.301,10.0499 C42.305,6.1289 39.141,2.9999 35.251,2.9999 Z M12.764,12.256 C13.593,12.256 14.264,12.927 14.264,13.756 C14.264,14.585 13.593,15.256 12.764,15.256 L12.764,15.256 L1.5,15.256 C0.672,15.256 0,14.585 0,13.756 C0,12.927 0.672,12.256 1.5,12.256 L1.5,12.256 Z M23.7309,0.0002 C24.5599,0.0002 25.2309,0.6712 25.2309,1.5002 C25.2309,2.3292 24.5599,3.0002 23.7309,3.0002 L23.7309,3.0002 L22.5469,3.0002 C21.7179,3.0002 21.0469,2.3292 21.0469,1.5002 C21.0469,0.6712 21.7179,0.0002 22.5469,0.0002 L22.5469,0.0002 Z" id="Combined-Shape"></path>
                        </g>
                        <g id="Cloud" transform="translate(1138.000200, 151.000000)" fill="#FFFFFF">
                            <path d="M35.251,-0.0001 C40.127,-0.0001 44.204,3.4619 45.114,8.0379 C46.098,7.7249 47.127,7.5639 48.164,7.5639 C53.708,7.5639 58.218,12.0379 58.218,17.5379 C58.218,23.0369 53.708,27.5119 48.164,27.5119 L48.164,27.5119 L27.018,27.5119 C23.743,27.5119 20.801,26.0959 18.759,23.8589 C18.489,24.2649 18.03,24.5329 17.507,24.5329 L17.507,24.5329 L11.876,24.5329 C11.047,24.5329 10.376,23.8629 10.376,23.0329 C10.376,22.2049 11.047,21.5329 11.876,21.5329 L11.876,21.5329 L17.121,21.5329 C16.32,20.0089 15.86,18.2799 15.86,16.4449 C15.86,13.6669 16.906,11.1319 18.617,9.1869 L18.617,9.1869 L11.876,9.1869 C11.047,9.1869 10.376,8.5149 10.376,7.6869 C10.376,6.8579 11.047,6.1869 11.876,6.1869 L11.876,6.1869 L22.86,6.1869 C23.942,5.7539 25.104,5.4739 26.322,5.3989 C28.036,2.0879 31.438,-0.0001 35.251,-0.0001 Z M6.1592,21.5334 C6.9882,21.5334 7.6592,22.2054 7.6592,23.0334 C7.6592,23.8624 6.9882,24.5334 6.1592,24.5334 L6.1592,24.5334 L4.9762,24.5334 C4.1472,24.5334 3.4762,23.8624 3.4762,23.0334 C3.4762,22.2054 4.1472,21.5334 4.9762,21.5334 L4.9762,21.5334 Z M35.251,2.9999 C32.328,2.9999 29.751,4.7439 28.685,7.4429 C28.452,8.0289 27.839,8.3959 27.249,8.3909 L27.249,8.3909 L27.065,8.3809 C22.517,8.3809 18.86,11.9979 18.86,16.4449 C18.86,20.8929 22.52,24.5119 27.018,24.5119 L27.018,24.5119 L48.164,24.5119 C52.054,24.5119 55.218,21.3839 55.218,17.5379 C55.218,13.6919 52.054,10.5639 48.164,10.5639 C46.899,10.5639 45.651,10.9069 44.555,11.5559 C44.082,11.8369 43.493,11.8349 43.021,11.5539 C42.55,11.2719 42.269,10.7549 42.291,10.2059 L42.291,10.2059 L42.301,10.0499 C42.305,6.1289 39.141,2.9999 35.251,2.9999 Z M12.764,12.256 C13.593,12.256 14.264,12.927 14.264,13.756 C14.264,14.585 13.593,15.256 12.764,15.256 L12.764,15.256 L1.5,15.256 C0.672,15.256 0,14.585 0,13.756 C0,12.927 0.672,12.256 1.5,12.256 L1.5,12.256 Z M23.7309,0.0002 C24.5599,0.0002 25.2309,0.6712 25.2309,1.5002 C25.2309,2.3292 24.5599,3.0002 23.7309,3.0002 L23.7309,3.0002 L22.5469,3.0002 C21.7179,3.0002 21.0469,2.3292 21.0469,1.5002 C21.0469,0.6712 21.7179,0.0002 22.5469,0.0002 L22.5469,0.0002 Z" id="Combined-Shape"></path>
                        </g>
                        <path d="M1295.483,208.0006 C1296.311,208.0006 1296.983,208.6716 1296.983,209.5006 L1296.983,209.5006 L1296.983,210.9826 L1298.465,210.9826 C1299.293,210.9826 1299.965,211.6536 1299.965,212.4826 C1299.965,213.3116 1299.293,213.9826 1298.465,213.9826 L1298.465,213.9826 L1296.983,213.9826 L1296.983,215.4646 C1296.983,216.2936 1296.311,216.9646 1295.483,216.9646 C1294.654,216.9646 1293.983,216.2936 1293.983,215.4646 L1293.983,215.4646 L1293.983,213.9826 L1292.5,213.9826 C1291.672,213.9826 1291,213.3116 1291,212.4826 C1291,211.6536 1291.672,210.9826 1292.5,210.9826 L1292.5,210.9826 L1293.983,210.9826 L1293.983,209.5006 C1293.983,208.6716 1294.654,208.0006 1295.483,208.0006 Z M980.483,208.0006 C981.311,208.0006 981.983,208.6716 981.983,209.5006 L981.983,209.5006 L981.983,210.9826 L983.465,210.9826 C984.293,210.9826 984.965,211.6536 984.965,212.4826 C984.965,213.3116 984.293,213.9826 983.465,213.9826 L983.465,213.9826 L981.983,213.9826 L981.983,215.4646 C981.983,216.2936 981.311,216.9646 980.483,216.9646 C979.654,216.9646 978.983,216.2936 978.983,215.4646 L978.983,215.4646 L978.983,213.9826 L977.5,213.9826 C976.672,213.9826 976,213.3116 976,212.4826 C976,211.6536 976.672,210.9826 977.5,210.9826 L977.5,210.9826 L978.983,210.9826 L978.983,209.5006 C978.983,208.6716 979.654,208.0006 980.483,208.0006 Z M814.3953,203.00019 C815.7163,203.00019 816.7903,204.07419 816.7903,205.39519 C816.7903,206.71519 815.7163,207.79019 814.3953,207.79019 C813.0743,207.79019 812.0003,206.71519 812.0003,205.39519 C812.0003,204.07419 813.0743,203.00019 814.3953,203.00019 Z M113.483,196.0006 C114.311,196.0006 114.983,196.6716 114.983,197.5006 L114.983,197.5006 L114.983,198.9826 L116.465,198.9826 C117.293,198.9826 117.965,199.6536 117.965,200.4826 C117.965,201.3116 117.293,201.9826 116.465,201.9826 L116.465,201.9826 L114.983,201.9826 L114.983,203.4646 C114.983,204.2936 114.311,204.9646 113.483,204.9646 C112.654,204.9646 111.983,204.2936 111.983,203.4646 L111.983,203.4646 L111.983,201.9826 L110.5,201.9826 C109.672,201.9826 109,201.3116 109,200.4826 C109,199.6536 109.672,198.9826 110.5,198.9826 L110.5,198.9826 L111.983,198.9826 L111.983,197.5006 C111.983,196.6716 112.654,196.0006 113.483,196.0006 Z M54.3953,196.00019 C55.7163,196.00019 56.7903,197.07419 56.7903,198.39519 C56.7903,199.71519 55.7163,200.79019 54.3953,200.79019 C53.0743,200.79019 52.0003,199.71519 52.0003,198.39519 C52.0003,197.07419 53.0743,196.00019 54.3953,196.00019 Z M250.3953,174.00019 C251.7163,174.00019 252.7903,175.07419 252.7903,176.39519 C252.7903,177.71519 251.7163,178.79019 250.3953,178.79019 C249.0743,178.79019 248.0003,177.71519 248.0003,176.39519 C248.0003,175.07419 249.0743,174.00019 250.3953,174.00019 Z M1374.3953,162.00019 C1375.7163,162.00019 1376.7903,163.07419 1376.7903,164.39519 C1376.7903,165.71519 1375.7163,166.79019 1374.3953,166.79019 C1373.0743,166.79019 1372.0003,165.71519 1372.0003,164.39519 C1372.0003,163.07419 1373.0743,162.00019 1374.3953,162.00019 Z M4.483,153.0006 C5.311,153.0006 5.983,153.6716 5.983,154.5006 L5.983,154.5006 L5.983,155.9826 L7.465,155.9826 C8.293,155.9826 8.965,156.6536 8.965,157.4826 C8.965,158.3116 8.293,158.9826 7.465,158.9826 L7.465,158.9826 L5.983,158.9826 L5.983,160.4646 C5.983,161.2936 5.311,161.9646 4.483,161.9646 C3.654,161.9646 2.983,161.2936 2.983,160.4646 L2.983,160.4646 L2.983,158.9826 L1.5,158.9826 C0.672,158.9826 -1.13686838e-13,158.3116 -1.13686838e-13,157.4826 C-1.13686838e-13,156.6536 0.672,155.9826 1.5,155.9826 L1.5,155.9826 L2.983,155.9826 L2.983,154.5006 C2.983,153.6716 3.654,153.0006 4.483,153.0006 Z M615.3953,150.00019 C616.7163,150.00019 617.7903,151.07419 617.7903,152.39519 C617.7903,153.71519 616.7163,154.79019 615.3953,154.79019 C614.0743,154.79019 613.0003,153.71519 613.0003,152.39519 C613.0003,151.07419 614.0743,150.00019 615.3953,150.00019 Z M1036.9821,146.00019 C1038.0751,146.00019 1038.9641,146.88919 1038.9641,147.98219 C1038.9641,149.07519 1038.0751,149.96319 1036.9821,149.96319 C1035.8891,149.96319 1035.0011,149.07519 1035.0011,147.98219 C1035.0011,146.88919 1035.8891,146.00019 1036.9821,146.00019 Z M1252.9821,126.00019 C1254.0751,126.00019 1254.9641,126.88919 1254.9641,127.98219 C1254.9641,129.07519 1254.0751,129.96319 1252.9821,129.96319 C1251.8891,129.96319 1251.0011,129.07519 1251.0011,127.98219 C1251.0011,126.88919 1251.8891,126.00019 1252.9821,126.00019 Z M862.483,119.0006 C863.311,119.0006 863.983,119.6716 863.983,120.5006 L863.983,120.5006 L863.983,121.9826 L865.465,121.9826 C866.293,121.9826 866.965,122.6536 866.965,123.4826 C866.965,124.3116 866.293,124.9826 865.465,124.9826 L865.465,124.9826 L863.983,124.9826 L863.983,126.4646 C863.983,127.2936 863.311,127.9646 862.483,127.9646 C861.654,127.9646 860.983,127.2936 860.983,126.4646 L860.983,126.4646 L860.983,124.9826 L859.5,124.9826 C858.672,124.9826 858,124.3116 858,123.4826 C858,122.6536 858.672,121.9826 859.5,121.9826 L859.5,121.9826 L860.983,121.9826 L860.983,120.5006 C860.983,119.6716 861.654,119.0006 862.483,119.0006 Z M326.483,119.0006 C327.311,119.0006 327.983,119.6716 327.983,120.5006 L327.983,120.5006 L327.983,121.9826 L329.465,121.9826 C330.293,121.9826 330.965,122.6536 330.965,123.4826 C330.965,124.3116 330.293,124.9826 329.465,124.9826 L329.465,124.9826 L327.983,124.9826 L327.983,126.4646 C327.983,127.2936 327.311,127.9646 326.483,127.9646 C325.654,127.9646 324.983,127.2936 324.983,126.4646 L324.983,126.4646 L324.983,124.9826 L323.5,124.9826 C322.672,124.9826 322,124.3116 322,123.4826 C322,122.6536 322.672,121.9826 323.5,121.9826 L323.5,121.9826 L324.983,121.9826 L324.983,120.5006 C324.983,119.6716 325.654,119.0006 326.483,119.0006 Z M600.483,73.0006 C601.311,73.0006 601.983,73.6716 601.983,74.5006 L601.983,74.5006 L601.983,75.9826 L603.465,75.9826 C604.293,75.9826 604.965,76.6536 604.965,77.4826 C604.965,78.3116 604.293,78.9826 603.465,78.9826 L603.465,78.9826 L601.983,78.9826 L601.983,80.4646 C601.983,81.2936 601.311,81.9646 600.483,81.9646 C599.654,81.9646 598.983,81.2936 598.983,80.4646 L598.983,80.4646 L598.983,78.9826 L597.5,78.9826 C596.672,78.9826 596,78.3116 596,77.4826 C596,76.6536 596.672,75.9826 597.5,75.9826 L597.5,75.9826 L598.983,75.9826 L598.983,74.5006 C598.983,73.6716 599.654,73.0006 600.483,73.0006 Z M58.9821,76.00019 C60.0751,76.00019 60.9641,76.88919 60.9641,77.98219 C60.9641,79.07519 60.0751,79.96319 58.9821,79.96319 C57.8891,79.96319 57.0011,79.07519 57.0011,77.98219 C57.0011,76.88919 57.8891,76.00019 58.9821,76.00019 Z M644.9821,40.00019 C646.0751,40.00019 646.9641,40.88919 646.9641,41.98219 C646.9641,43.07519 646.0751,43.96319 644.9821,43.96319 C643.8891,43.96319 643.0011,43.07519 643.0011,41.98219 C643.0011,40.88919 643.8891,40.00019 644.9821,40.00019 Z" id="Stars" fill="#FFFFFF"></path>
                    </g>
                </g>
            </g>
        </g>
    </g>
</svg>