<?xml version="1.0" standalone="no"?>
<!DOCTYPE svg PUBLIC "-//W3C//DTD SVG 20010904//EN"
 "http://www.w3.org/TR/2001/REC-SVG-20010904/DTD/svg10.dtd">
<svg version="1.0" xmlns="http://www.w3.org/2000/svg"
 width="320.000000pt" height="320.000000pt" viewBox="0 0 320.000000 320.000000"
 preserveAspectRatio="xMidYMid meet">
<metadata>
Created by potrace 1.11, written by Peter Selinger 2001-2013
</metadata>
<g transform="translate(0.000000,320.000000) scale(0.100000,-0.100000)"
fill="#000000" stroke="none">
<path d="M0 1600 l0 -1600 1600 0 1600 0 0 1600 0 1600 -1600 0 -1600 0 0
-1600z m2890 1120 l0 -30 -130 0 -130 0 -2 -432 -3 -433 -269 0 -268 0 1 355
c1 195 4 371 8 390 3 23 2 31 -4 25 -6 -5 -174 -488 -374 -1072 l-364 -1063
-35 0 -35 0 -195 578 -196 577 -327 3 -327 2 0 30 0 30 601 -2 601 -3 65 -190
c36 -104 68 -193 72 -197 6 -7 502 1425 501 1450 0 9 88 12 405 12 l405 0 0
-30z m-160 -1615 l0 -575 140 0 140 0 0 -30 0 -30 -540 0 -540 0 0 30 0 30
124 0 123 0 7 92 c3 50 6 267 6 483 0 216 3 433 6 483 l7 92 263 0 264 0 0
-575z m-2220 -38 l0 -422 25 -37 c27 -40 124 -94 187 -104 23 -4 38 -12 38
-20 0 -12 -50 -14 -285 -14 -227 0 -285 3 -285 13 0 8 24 18 59 25 65 14 142
60 175 105 20 28 21 42 24 453 l3 424 29 0 30 0 0 -423z"/>
</g>
</svg>
